<svg xmlns="http://www.w3.org/2000/svg" xmlns:xlink="http://www.w3.org/1999/xlink" id="Layer_1" x="0" y="0" version="1.1" viewBox="0 0 217 221.8" style="enable-background:new 0 0 217 221.8" xml:space="preserve"><style type="text/css">.st0{fill:#020202}</style><g><polygon points="199.3 49.9 202 49.9 202 59.2 203.4 59.2 203.4 49.9 206.1 49.9 206.1 48.8 199.3 48.8" class="st0"/><polygon points="214.8 48.8 212.1 57.6 212.1 57.6 209.5 48.8 207.3 48.8 207.3 59.2 208.5 59.2 208.5 49.9 208.6 49.9 211.4 59.2 212.7 59.2 215.6 49.9 215.7 49.9 215.7 59.2 217 59.2 217 48.8" class="st0"/><g><path d="M115.4,97.5L77.9,75.8l48.5-28h15.5L171.7,65l18.8-10.8l-37.5-21.7h-18.8V21.7L96.6,0L2.8,54.1l93.8,54.2 L115.4,97.5z M40.3,54.2l56.3-32.5l11,6.3v9L59.1,65L40.3,54.2z" class="st0"/><polygon points="18.8 144.2 26.5 139.7 67.3 163.2 75 176.7 75 211 93.8 221.8 93.8 178.5 84.4 162.3 93.8 156.9 93.8 113.5 75 102.7 75 137 67.3 141.5 26.5 118 18.8 104.6 18.8 70.2 0 59.4 0 102.7 9.4 118.9 0 124.4 0 167.7 18.8 178.5" class="st0"/><polygon points="99.5 221.8 193.3 167.7 193.3 146 118.3 189.4 118.3 124.4 193.3 81 193.3 59.4 99.5 113.5" class="st0"/></g></g></svg>